<?xml version="1.0" encoding="utf-8"?>
<!-- Generator: Adobe Illustrator 15.0.0, SVG Export Plug-In . SVG Version: 6.00 Build 0)  -->
<!DOCTYPE svg PUBLIC "-//W3C//DTD SVG 1.1//EN" "http://www.w3.org/Graphics/SVG/1.1/DTD/svg11.dtd">
<svg version="1.1" id="Layer_1" xmlns="http://www.w3.org/2000/svg" xmlns:xlink="http://www.w3.org/1999/xlink" x="0px" y="0px"
	 width="87.199px" height="87.2px" viewBox="0 0 87.199 87.2" enable-background="new 0 0 87.199 87.2" xml:space="preserve">
<g>
	<path fill="#FFFFFF" d="M45.071,47.543l-0.926,0.407l1.205-6.139c0.066-0.338-0.065-0.685-0.345-0.885
		c-0.278-0.201-0.652-0.221-0.952-0.054l-2.242,1.262c-0.424,0.239-0.575,0.778-0.334,1.203c0.238,0.426,0.776,0.576,1.203,0.335
		l0.571-0.32l-1.166,5.91c-0.063,0.322,0.058,0.655,0.314,0.859c0.159,0.129,0.355,0.193,0.551,0.193c0.12,0,0.24-0.021,0.354-0.068
		l2.476-1.079c0.446-0.195,0.646-0.717,0.453-1.163C46.038,47.557,45.522,47.349,45.071,47.543z"/>
	<path fill="#FFFFFF" d="M44.489,39.223c0.328,0,0.651-0.132,0.887-0.366c0.234-0.236,0.372-0.561,0.372-0.894
		s-0.139-0.66-0.372-0.89c-0.235-0.235-0.562-0.373-0.887-0.373c-0.337,0-0.66,0.138-0.895,0.373
		c-0.236,0.23-0.369,0.557-0.369,0.89s0.133,0.658,0.369,0.894C43.829,39.091,44.151,39.223,44.489,39.223z"/>
	<path fill="#FFFFFF" d="M43.6,32.6c-6.064,0-11,4.936-11,11c0,6.066,4.936,11,11,11c6.068,0,11-4.934,11-11
		C54.6,37.536,49.668,32.6,43.6,32.6z M43.6,52.582c-4.953,0-8.981-4.029-8.981-8.981c0-4.954,4.029-8.983,8.981-8.983
		c4.952,0,8.982,4.029,8.982,8.983C52.582,48.552,48.552,52.582,43.6,52.582z"/>
</g>
</svg>
