<?xml version="1.0" encoding="utf-8"?>
<!-- Generator: Adobe Illustrator 15.0.0, SVG Export Plug-In . SVG Version: 6.00 Build 0)  -->
<!DOCTYPE svg PUBLIC "-//W3C//DTD SVG 1.1//EN" "http://www.w3.org/Graphics/SVG/1.1/DTD/svg11.dtd">
<svg version="1.1" id="Layer_1" xmlns="http://www.w3.org/2000/svg" xmlns:xlink="http://www.w3.org/1999/xlink" x="0px" y="0px"
	 width="91.695px" height="76.24px" viewBox="0 0 91.695 76.24" enable-background="new 0 0 91.695 76.24" xml:space="preserve">
<g>
	<path fill="#FFFFFF" d="M36.799,34.484h18.099c1.077,0,1.951-1.016,1.951-2.27s-0.875-2.27-1.951-2.27H36.799
		c-1.077,0-1.95,1.016-1.95,2.27C34.847,33.468,35.721,34.484,36.799,34.484z"/>
	<path fill="#FFFFFF" d="M54.896,36.815H36.799c-1.077,0-1.95,1.017-1.95,2.269c0,1.255,0.874,2.271,1.95,2.271h18.099
		c1.077,0,1.951-1.017,1.951-2.271C56.847,37.832,55.973,36.815,54.896,36.815z"/>
	<path fill="#FFFFFF" d="M54.896,43.756H36.799c-1.077,0-1.95,1.017-1.95,2.271c0,1.252,0.874,2.27,1.95,2.27h18.099
		c1.077,0,1.951-1.018,1.951-2.27C56.847,44.772,55.973,43.756,54.896,43.756z"/>
</g>
</svg>
