<?xml version="1.0" encoding="utf-8"?>
<!-- Generator: Adobe Illustrator 15.0.0, SVG Export Plug-In . SVG Version: 6.00 Build 0)  -->
<!DOCTYPE svg PUBLIC "-//W3C//DTD SVG 1.1//EN" "http://www.w3.org/Graphics/SVG/1.1/DTD/svg11.dtd">
<svg version="1.1" id="Layer_1" xmlns="http://www.w3.org/2000/svg" xmlns:xlink="http://www.w3.org/1999/xlink" x="0px" y="0px"
	 width="61.256px" height="83.6px" viewBox="0 0 61.256 83.6" enable-background="new 0 0 61.256 83.6" xml:space="preserve">
<g>
	<path fill="none" stroke="#FFFFFF" stroke-width="2" stroke-miterlimit="10" d="M30.628,32.3c-3.214,0-6.963,1.897-6.963,7.247
		c0,5.18,6.067,11.24,6.324,11.49c0.178,0.18,0.406,0.264,0.638,0.264s0.46-0.084,0.642-0.264c0.26-0.25,6.322-6.31,6.322-11.49
		C37.593,34.198,33.841,32.3,30.628,32.3z"/>
	<path fill="#FFFFFF" d="M30.628,35.635c-1.979,0-3.596,1.614-3.596,3.59c0,1.985,1.614,3.603,3.596,3.603
		c1.977,0,3.59-1.616,3.59-3.603C34.218,37.249,32.604,35.635,30.628,35.635z"/>
</g>
</svg>
